<svg xmlns="http://www.w3.org/2000/svg" version="1.1" xmlns:xlink="http://www.w3.org/1999/xlink" xmlns:svgjs="http://svgjs.dev/svgjs" viewBox="0 0 800 800"><defs><linearGradient x1="50%" y1="0%" x2="50%" y2="100%" id="ccchaos-grad"><stop stop-color="hsl(272, 99%, 54%)" stop-opacity="1" offset="0%"></stop><stop stop-color="hsl(212, 72%, 59%)" stop-opacity="1" offset="100%"></stop></linearGradient></defs><g stroke-width="2" stroke="url(#ccchaos-grad)" fill="none" stroke-linecap="round"><path d="M411.48 109.46C421.62 114.8 431.97 120.47 442.5 125.76 453.03 129.68 463.75 132.31 474.57 133.55 485.38 133.02 496.25 131.58 507.07 129.69 517.76 127.41 528.27 125.83 538.44 125.45 548.28 126.19 557.55 128.78 566.05 133.27 573.95 139.25 580.85 146.86 586.56 155.73 591.48 165.31 595.09 175.42 597.37 185.66 598.98 195.54 599.46 204.98 599.02 213.8 598.58 221.68 597.84 228.85 597.23 235.37 597.73 240.99 599.22 246.22 602.11 251.23 607.09 255.71 613.98 260.31 622.83 265.17 633.71 269.88 646.07 275.07 659.39 280.79 673.12 286.59 686.32 292.98 698.06 299.96 707.8 307.05 714.55 314.68 717.7 322.79 717.49 330.97 713.5 339.57 706.07 348.51 696.56 357.47 685.31 366.73 673.49 376.25 662.92 385.77 654.28 395.33 648.31 404.95 645.81 414.61 646.4 424.4 649.73 434.36 655.75 444.48 663.11 454.89 670.85 465.67 678.7 476.72 685.14 488.26 689.47 500.29 691.75 512.62 691.1 525.43 687.48 538.59 681.43 551.8 672.81 565.07 662.14 578.08 650.07 590.47 636.95 602 623.36 612.21 609.77 620.94 596.55 627.73 584.02 632.25 572.39 634.87 561.77 635.18 552.16 633.35 543.66 630.48 536.02 626.51 529.08 622.21 522.96 619.08 517.21 617.32 511.62 617.78 506.45 621.47 501.14 628.25 495.54 638.09 490.06 650.73 484.12 665.08 477.64 679.93 471.14 694.05 464.05 705.82 456.36 713.86 448.62 717.65 440.29 716.37 431.41 710.14 422.48 700.43 413.03 688.01 403.09 674.64 393.14 662.9 382.97 654.03 372.64 649.12 362.34 648.99 351.9 652.96 341.39 660.1 330.95 669.74 320.48 679.75 310.04 688.56 299.73 695.49 289.53 698.88 279.52 698.2 269.72 693.8 260.22 685.51 251.1 674.09 242.31 660.57 234.01 645.76 226.3 630.73 218.99 616.36 212.32 603.3 206.34 592.03 200.73 582.93 195.76 575.87 191.41 570.64 185.36 566.23 174.87 562.43 169.75 560.52 165.84 558.92 161.77 556.31 157.49 552.59 152.61 548.32 147.54 542.88 142.37 536.39 136.83 529.37 131.44 521.46 126.37 512.84 121.44 503.89 117.17 494.44 113.77 484.65 110.95 474.71 109.19 464.59 108.57 454.38 108.59 444.14 109.65 433.89 111.64 423.66 113.86 413.44 116.58 403.48 119.58 393.78 122.21 384.04 124.79 374.49 127.23 365.07 129.01 355.52 130.61 346.01 132.09 336.45 133.07 326.66 134.17 316.72 135.53 306.57 136.85 296.11 138.76 285.39 141.37 274.42 144.38 263.22 148.3 251.86 153.14 240.47 158.57 229.17 164.9 218.14 172.03 207.61 179.65 197.7 187.9 188.7 196.64 180.88 205.57 174.12 214.78 168.76 224.15 164.9 233.44 162.03 242.74 160.4 252 159.79 261.01 159.32 269.94 159.11 278.79 158.73 287.34 157.3 295.87 154.97 304.39 151.5 312.67 146.43 321.03 140.27 329.53 133.31 337.85 125.66 346.39 118.21 355.19 111.61 363.89 106.09 372.9 102.52 382.27 101.25 391.6 101.9 401.33 104.76 411.47 109.45" stroke-dasharray="3 3" transform="rotate(0, 400, 400)" opacity="1.00"></path><path d="M417.49 120.33C427.38 125.61 437.38 131.23 447.45 136.55 457.53 140.61 467.66 143.49 477.77 145.06 487.84 144.92 497.82 143.8 507.61 142.12 517.22 139.86 526.49 138.06 535.28 137.2 543.72 137.2 551.47 138.85 558.4 142.25 564.77 147.07 570.14 153.56 574.4 161.45 578.05 170.24 580.59 179.83 582.05 189.85 583.15 199.83 583.47 209.65 583.24 219.1 583.33 227.84 583.49 235.97 584.09 243.5 585.97 250.18 588.96 256.36 593.41 262.18 599.78 267.37 607.86 272.46 617.6 277.6 628.95 282.43 641.36 287.53 654.3 293 667.26 298.38 679.4 304.25 689.9 310.62 698.37 317.02 703.93 323.94 706.12 331.36 705.27 338.81 701 346.75 693.67 355.13 684.53 363.51 673.86 372.33 662.68 381.56 652.65 390.79 644.31 400.23 638.34 409.89 635.5 419.58 635.45 429.55 637.95 439.81 643.02 450.18 649.49 460.93 656.54 472.05 663.98 483.34 670.42 495.04 675.18 507.1 678.35 519.24 678.96 531.61 676.91 544.02 672.65 556.18 665.89 568.04 657.02 579.25 646.61 589.61 634.88 598.81 622.34 606.47 609.43 612.67 596.5 616.96 583.89 619.18 571.82 619.91 560.48 618.81 549.95 616.18 540.32 613.17 531.49 609.73 523.38 606.59 516.06 605.06 509.22 605.23 502.7 607.73 496.68 613.28 490.71 621.58 484.66 632.45 478.82 645.46 472.71 659.56 466.23 673.59 459.81 686.49 452.93 696.85 445.56 703.53 438.17 706.21 430.28 704.24 421.87 697.82 413.45 688.34 404.53 676.47 395.15 663.77 385.77 652.56 376.17 643.91 366.43 638.8 356.71 638.04 346.89 641.07 337.02 647.16 327.23 655.82 317.45 665.16 307.76 673.83 298.21 681.21 288.82 685.67 279.69 686.62 270.78 684.24 262.21 678.15 254.07 668.87 246.25 657.23 238.93 643.82 232.19 629.57 225.79 615.31 219.99 601.7 214.82 589.3 209.9 578.53 205.53 569.51 201.68 562.2 196.11 554.67 185.82 546.5 180.5 543.75 174.25 541.05 159.88 531.68 151.97 524.46 146.37 518.96 140.98 512.56 135.97 505.39 131.14 497.92 127.01 489.82 123.76 481.2 121.11 472.44 119.51 463.3 119.03 453.87 119.2 444.41 120.37 434.73 122.44 424.88 124.76 415.03 127.55 405.26 130.62 395.55 133.34 385.82 136.02 376.12 138.54 366.4 140.41 356.59 142.09 346.7 143.6 336.68 144.58 326.5 145.61 316.13 146.83 305.56 147.93 294.83 149.51 283.92 151.7 272.89 154.22 261.84 157.56 250.82 161.75 239.99 166.5 229.49 172.14 219.48 178.59 210.18 185.56 201.64 193.21 194.14 201.43 187.86 209.95 182.58 218.84 178.61 227.99 175.95 237.17 174.01 246.46 173.02 255.79 172.72 264.97 172.25 274.11 171.75 283.2 170.84 292.06 168.75 300.89 165.7 309.69 161.53 318.28 155.91 326.91 149.37 335.6 142.23 344.15 134.62 352.83 127.39 361.7 121.14 370.47 116.03 379.49 112.84 388.77 111.88 398.03 112.72 407.59 115.66 417.48 120.32" stroke-dasharray="8 7" transform="rotate(4.04, 400, 400)" opacity="0.96"></path><path d="M421.32 131.2C430.89 136.4 440.46 141.97 450 147.29 459.52 151.47 468.96 154.59 478.27 156.48 487.5 156.72 496.5 155.97 505.17 154.56 513.66 152.42 521.69 150.52 529.14 149.3 536.25 148.7 542.63 149.5 548.17 151.87 553.26 155.54 557.42 160.85 560.61 167.62 563.4 175.42 565.3 184.23 566.4 193.72 567.43 203.46 568 213.33 568.35 223.07 569.29 232.39 570.56 241.28 572.5 249.68 575.77 257.35 580.21 264.53 586.05 271.28 593.59 277.38 602.6 283.23 612.93 288.97 624.47 294.29 636.68 299.7 649.03 305.31 661.1 310.71 672.11 316.46 681.36 322.6 688.59 328.67 693.05 335.21 694.37 342.22 692.96 349.22 688.48 356.71 681.27 364.69 672.53 372.67 662.43 381.14 651.88 390.12 642.36 399.1 634.34 408.39 628.41 417.98 625.27 427.6 624.66 437.56 626.38 447.84 630.54 458.2 636.12 468.9 642.42 479.91 649.34 490.97 655.61 502.3 660.61 513.78 664.41 525.15 666.06 536.48 665.37 547.55 662.73 558.16 657.74 568.15 650.66 577.24 641.99 585.36 631.83 592.17 620.6 597.4 608.73 601.34 596.49 603.56 584.22 604.03 572.17 603.5 560.53 601.66 549.47 598.9 539.07 596.34 529.34 593.93 520.27 592.3 511.88 592.54 504.03 594.66 496.58 599.07 489.64 606.22 482.9 615.73 476.24 627.27 469.86 640.33 463.37 653.93 456.69 666.97 450.12 678.59 443.24 687.55 436.01 692.93 428.79 694.6 421.18 692.04 413.15 685.47 405.12 676.26 396.67 664.94 387.82 652.91 378.97 642.22 369.96 633.81 360.84 628.54 351.76 627.22 342.61 629.37 333.48 634.43 324.42 642.08 315.42 650.68 306.57 659.01 297.86 666.6 289.37 671.87 281.17 674.17 273.19 673.61 265.58 669.6 258.42 662.47 251.53 652.87 245.14 641.18 239.31 628.17 233.72 614.58 228.68 601.02 224.18 588.09 219.82 576.22 215.9 565.69 212.38 556.62 208.76 549.15 205.37 543.05 202.11 538.07 196.65 532.76 184.41 524.85 177.38 520.71 172.11 517.86 166.73 514.32 161.34 510.02 155.74 505.53 150.38 500.24 145.46 494.18 140.77 487.93 136.81 480.97 133.74 473.41 131.27 465.73 129.85 457.52 129.52 448.88 129.82 440.19 131.09 431.12 133.25 421.71 135.64 412.3 138.5 402.79 141.62 393.19 144.42 383.58 147.18 373.85 149.8 364.01 151.77 354.12 153.54 344.08 155.12 333.87 156.14 323.59 157.15 313.14 158.27 302.56 159.2 291.96 160.52 281.29 162.35 270.67 164.41 260.21 167.21 249.97 170.78 240.13 174.85 230.76 179.77 222.06 185.5 214.22 191.74 207.17 198.71 201.2 206.29 196.41 214.24 192.48 222.65 189.69 231.41 187.97 240.3 186.68 249.4 186.03 258.61 185.76 267.78 185.05 276.97 184.08 286.16 182.52 295.2 179.72 304.22 175.94 313.21 171.13 322.04 165.03 330.87 158.2 339.73 150.98 348.47 143.5 357.28 136.56 366.19 130.69 375.04 126.01 384.04 123.21 393.21 122.54 402.36 123.57 411.73 126.57 421.3 131.19" stroke-dasharray="4 6" transform="rotate(8.08, 400, 400)" opacity="0.92"></path><path d="M422.49 142.07C431.69 147.19 440.77 152.68 449.69 157.98 458.59 162.27 467.3 165.6 475.74 167.8 484.1 168.44 492.12 168.08 499.71 166.99 507.12 165.05 514 163.16 520.24 161.72 528.82 160.68 541.68 166.81 545.87 174.45 548.2 181.11 549.89 188.92 551.06 197.6 552.39 206.78 553.56 216.34 554.78 226.04 556.76 235.59 559.26 244.93 562.56 253.94 567.16 262.42 572.91 270.47 579.92 278.11 588.38 285.17 598.02 291.9 608.66 298.42 620.12 304.48 631.91 310.48 643.51 316.53 654.58 322.3 664.41 328.26 672.43 334.5 678.47 340.59 681.9 347.06 682.45 353.93 680.56 360.74 675.93 368 668.89 375.74 660.55 383.46 651.02 391.68 641.07 400.42 632.07 409.16 624.37 418.23 618.5 427.61 615.13 437 614 446.72 615.01 456.72 618.3 466.73 622.99 477 628.52 487.44 634.83 497.83 640.79 508.29 645.84 518.69 650.05 528.83 652.49 538.67 652.93 548.01 651.71 556.77 648.34 564.7 642.97 571.57 636.06 577.51 627.57 582.13 617.83 585.27 607.26 587.4 596.04 588.1 584.5 587.47 572.88 586.33 561.38 584.42 550.21 582.13 539.43 580.51 529.15 579.48 519.41 579.57 510.22 581.64 501.53 585.61 493.27 591.72 485.48 600.17 477.98 610.55 470.68 622.41 463.67 635.24 456.7 648.11 449.7 660.04 442.83 670.32 435.81 677.91 428.57 682.07 421.38 682.83 413.92 679.75 406.17 673.12 398.42 664.19 390.36 653.43 382 642.04 373.65 631.87 365.2 623.71 356.73 618.34 348.28 616.51 339.84 617.85 331.46 621.93 323.16 628.56 314.99 636.32 307.01 644.19 299.16 651.76 291.57 657.56 284.31 660.93 277.23 661.93 270.54 659.83 264.3 654.77 258.27 647.29 252.7 637.52 247.64 626.09 242.73 613.66 238.29 600.71 234.3 587.86 230.33 575.51 226.7 564.03 223.35 553.65 219.81 544.54 216.38 536.66 213 529.9 209.2 524.35 205.29 519.62 201.23 515.43 196.63 511.99 191.83 508.68 186.85 505.28 181.43 502.15 175.94 498.63 170.5 494.6 164.92 490.56 159.66 485.87 154.86 480.53 150.35 475.09 146.59 468.98 143.72 462.24 141.46 455.42 140.22 448.01 140.04 440.07 140.46 432.1 141.83 423.64 144.05 414.71 146.5 405.78 149.41 396.63 152.58 387.28 155.45 377.93 158.29 368.39 160.99 358.67 163.08 348.94 164.96 339.04 166.62 328.99 167.72 318.96 168.76 308.82 169.83 298.64 170.66 288.58 171.78 278.58 173.31 268.78 174.97 259.29 177.28 250.19 180.28 241.63 183.69 233.64 187.9 226.41 192.88 220.1 198.35 214.54 204.56 209.99 211.42 206.53 218.68 203.71 226.47 201.82 234.67 200.74 243.1 199.79 251.82 199.2 260.72 198.7 269.69 197.56 278.75 195.96 287.85 193.67 296.9 190.14 305.95 185.67 314.99 180.28 323.93 173.81 332.86 166.78 341.78 159.57 350.62 152.31 359.48 145.71 368.38 140.27 377.23 136.03 386.16 133.61 395.17 133.23 404.17 134.44 413.27 137.49 422.47 142.06" stroke-dasharray="11 6" transform="rotate(12.12, 400, 400)" opacity="0.89"></path><path d="M420.85 152.93C429.62 157.96 438.17 163.36 446.45 168.63 454.71 173 462.67 176.52 470.28 179.01 477.8 180.04 484.9 180.08 491.51 179.36 500.92 176.82 516.39 172.74 522.29 173.14 527.24 176.22 534.14 190.86 536.65 201.85 538.59 210.17 540.59 219.1 542.87 228.4 545.97 237.81 549.72 247.23 554.31 256.52 560.11 265.5 566.95 274.19 574.87 282.54 583.97 290.43 593.96 298 604.63 305.31 615.77 312.19 626.94 318.91 637.65 325.57 647.64 331.93 656.28 338.35 663.09 344.91 668.02 351.29 670.51 357.93 670.37 364.86 668.08 371.71 663.37 378.92 656.53 386.54 648.59 394.13 639.62 402.16 630.27 410.64 621.77 419.13 614.4 427.89 608.62 436.9 605.06 445.91 603.49 455.14 603.84 464.55 606.32 473.93 610.15 483.42 614.88 492.92 620.52 502.28 626.05 511.52 630.96 520.48 635.37 529.1 638.37 537.22 639.71 544.67 639.68 551.51 637.74 557.43 633.95 562.25 628.73 566.29 621.91 569.11 613.77 570.68 604.68 571.57 594.73 571.39 584.22 570.33 573.4 569.21 562.44 567.78 551.55 566.46 540.82 566.14 530.38 566.71 520.33 568.6 510.65 572.43 501.4 578.05 492.55 585.55 484.08 594.98 475.94 605.86 468.06 617.73 460.47 630.06 453.01 642.01 445.64 652.73 438.42 661.67 431.18 667.94 423.86 670.96 416.6 670.9 409.2 667.4 401.64 660.75 394.09 652.14 386.35 641.92 378.43 631.17 370.51 621.52 362.59 613.63 354.73 608.19 346.89 605.93 339.13 606.52 331.51 609.66 323.95 615.28 316.57 622.16 309.43 629.42 302.4 636.78 295.66 642.86 289.27 647.02 283.01 649.29 277.14 648.86 271.69 645.73 266.38 640.32 261.49 632.58 257.03 622.97 252.64 612.06 248.62 600.22 244.96 587.99 241.22 575.77 237.71 563.95 234.37 552.81 230.77 542.56 227.21 533.29 223.61 525 219.57 517.79 215.39 511.43 211.04 505.75 206.18 500.89 201.15 496.39 195.98 492.07 190.43 488.17 184.88 484.16 179.45 479.89 173.95 475.76 168.82 471.19 164.19 466.12 159.9 461.06 156.36 455.43 153.71 449.23 151.66 442.99 150.61 436.18 150.58 428.82 151.13 421.44 152.59 413.53 154.86 405.12 157.36 396.7 160.3 387.99 163.5 379.04 166.43 370.11 169.34 360.96 172.12 351.62 174.33 342.32 176.32 332.87 178.1 323.34 179.3 313.89 180.4 304.42 181.48 295.04 182.26 285.85 183.24 276.87 184.54 268.23 185.88 259.97 187.76 252.21 190.24 245.11 193.05 238.57 196.58 232.83 200.83 227.98 205.53 223.76 210.94 220.45 217.01 218.05 223.5 216.05 230.55 214.74 238.07 213.96 245.87 213.05 254.03 212.25 262.46 211.3 271.02 209.57 279.75 207.26 288.58 204.2 297.43 199.97 306.34 194.88 315.24 189.01 324.12 182.26 332.99 175.16 341.84 168.06 350.65 161.08 359.45 154.88 368.23 149.88 376.99 146.09 385.76 144.07 394.53 143.96 403.3 145.34 412.07 148.42 420.84 152.93" stroke-dasharray="3 6" transform="rotate(16.16, 400, 400)" opacity="0.85"></path><path d="M416.62 163.8C424.91 168.72 432.9 174.02 440.55 179.23 448.18 183.66 455.43 187.35 462.27 190.11 472.2 191.74 489.43 189.56 496.57 187.26 507.88 185.84 520.27 197.58 523.7 206.79 526.44 214.03 529.42 222.06 532.81 230.63 537.04 239.53 541.96 248.66 547.68 257.86 554.47 266.97 562.16 275.96 570.72 284.73 580.16 293.2 590.22 301.42 600.65 309.38 611.28 316.99 621.66 324.42 631.38 331.7 640.24 338.71 647.69 345.67 653.35 352.67 657.24 359.48 658.89 366.42 658.15 373.53 655.54 380.56 650.79 387.84 644.18 395.4 636.66 402.93 628.23 410.79 619.47 418.99 611.46 427.19 604.42 435.55 598.77 444.03 595.06 452.5 593.1 461.07 592.87 469.66 594.58 478.19 597.59 486.65 601.52 494.96 606.43 503.08 611.43 510.9 616.08 518.27 622.16 528.49 626.37 544.48 623.62 549.72 619.96 552.29 614.76 553.86 608.22 554.45 600.7 554.72 592.19 554.3 582.94 553.42 573.21 552.85 563.11 552.39 552.86 552.37 542.56 553.56 532.36 555.81 522.36 559.43 512.57 564.84 503.08 571.85 493.92 580.41 485.04 590.45 476.46 601.5 468.17 613.06 460.11 624.67 452.26 635.56 444.57 645.01 437.02 652.61 429.56 657.62 422.13 659.61 414.77 658.83 407.39 654.98 399.97 648.37 392.57 640.09 385.09 630.43 377.54 620.3 370 611.16 362.56 603.56 355.26 598.1 347.97 595.45 340.84 595.37 333.91 597.63 327.02 602.26 320.36 608.22 313.98 614.78 307.67 621.74 301.67 627.86 296.03 632.54 287.86 636.27 273.49 629.02 267.25 618.49 263.19 609.36 259.42 599 255.91 587.86 252.23 576.33 248.7 564.76 245.25 553.47 241.49 542.65 237.69 532.49 233.81 523.11 229.5 514.55 225.02 506.77 220.38 499.7 215.29 493.39 210.06 487.58 204.74 482.12 199.14 477.16 193.58 472.31 188.2 467.42 182.84 462.78 177.88 457.92 173.47 452.75 169.42 447.65 166.14 442.15 163.72 436.2 161.9 430.25 161.04 423.82 161.15 416.89 161.82 409.95 163.35 402.53 165.66 394.62 168.19 386.71 171.15 378.52 174.37 370.12 177.35 361.73 180.32 353.15 183.18 344.44 185.5 335.8 187.62 327.07 189.52 318.34 190.85 309.75 192.05 301.25 193.18 292.94 193.96 284.88 194.88 277.14 196.02 269.84 197.89 259.76 204.42 243.6 209.43 237.84 215.69 233.53 232.03 228.62 241.89 227.3 248.95 226.17 256.41 224.92 264.19 223.36 272.18 220.93 280.39 217.86 288.76 214.05 297.22 209.17 305.78 203.55 314.38 197.32 323 190.41 331.64 183.35 340.26 176.45 348.87 169.83 357.47 164.07 366.01 159.55 374.55 156.22 383.06 154.58 391.49 154.74 399.94 156.26 408.32 159.36 416.61 163.8" stroke-dasharray="4 0" transform="rotate(20.200000000000003, 400, 400)" opacity="0.81"></path><path d="M410.32 174.67C418.1 179.47 425.53 184.65 432.59 189.79 439.62 194.25 446.26 198.07 452.46 201.08 461.45 203.27 476.96 202.25 483.44 200.25 494.29 197.79 508 205.36 512.61 212.7 516.26 218.73 520.24 225.64 524.71 233.24 529.97 241.3 535.9 249.78 542.55 258.52 550.08 267.38 558.33 276.27 567.23 285.11 576.74 293.81 586.6 302.36 596.58 310.72 606.49 318.85 615.96 326.8 624.62 334.58 632.34 342.15 638.64 349.61 643.2 357.01 646.15 364.26 647.04 371.52 645.8 378.84 642.94 386.08 638.2 393.44 631.86 400.95 624.75 408.44 616.86 416.11 608.66 423.98 601.14 431.85 594.44 439.73 588.93 447.58 585.12 455.41 582.85 463.18 582.09 470.82 583.11 478.38 585.33 485.71 588.47 492.74 592.64 499.57 597.03 505.97 601.29 511.81 609.08 531.24 591.62 537.8 580.26 537.56 571.83 537.96 562.85 538.77 553.54 540.25 544.01 543 534.38 546.88 524.79 552.05 515.25 558.77 505.87 566.83 496.71 576.08 487.72 586.38 478.97 597.27 470.49 608.27 462.18 618.96 454.08 628.68 446.19 636.82 438.43 643.13 430.81 646.96 423.31 648.02 415.88 646.62 408.52 642.51 401.21 635.98 393.93 628.07 386.67 618.96 379.45 609.43 372.23 600.8 365.21 593.49 358.39 588.05 351.58 585.09 345 584.4 338.66 585.85 332.34 589.52 326.29 594.55 320.54 600.33 314.83 606.75 309.43 612.7 304.36 617.63 296.97 622.6 283.81 620.06 277.97 612.42 274.06 605.2 270.37 596.56 266.84 586.88 263.09 576.51 259.41 565.72 255.75 554.83 251.74 544.05 247.66 533.59 243.48 523.62 238.87 514.2 234.12 505.4 229.22 497.21 223.94 489.66 218.56 482.63 213.16 476.04 207.55 469.95 202.05 464.11 196.79 458.41 191.61 453.01 186.88 447.57 182.71 442.02 178.94 436.6 175.92 430.94 173.76 424.99 172.17 419.08 171.5 412.81 171.75 406.17 172.53 399.53 174.13 392.49 176.47 385.07 179.01 377.64 181.98 370.02 185.2 362.24 188.21 354.5 191.23 346.63 194.16 338.73 196.59 330.89 198.83 323.07 200.86 315.36 202.34 307.79 203.67 300.42 204.89 293.34 206.19 283.29 209.27 266.06 211.59 259.23 214.6 253.64 223.9 246.16 230.29 243.98 235.12 242.62 240.51 241.48 246.41 240.4 252.64 238.81 259.3 236.96 266.33 234.67 273.58 231.5 281.12 227.69 288.87 223.18 296.76 217.75 304.79 211.72 312.91 205.25 321.09 198.32 329.32 191.4 337.55 184.8 345.81 178.6 354.04 173.32 362.22 169.29 370.41 166.42 378.54 165.14 386.56 165.55 394.6 167.2 402.53 170.32 410.31 174.67" stroke-dasharray="1 3" transform="rotate(24.24, 400, 400)" opacity="0.77"></path><path d="M402.73 185.54C409.99 190.21 416.9 195.25 423.42 200.3 429.93 204.76 436.04 208.7 441.74 211.91 450.04 214.64 464.49 214.86 470.69 213.28 481.85 210.27 497.75 214.3 503.64 219.82 508.18 224.58 513.11 230.25 518.53 236.69 524.66 243.68 531.37 251.23 538.69 259.18 546.68 267.4 555.21 275.83 564.16 284.35 573.48 292.9 582.92 301.42 592.24 309.84 601.31 318.16 609.78 326.35 617.34 334.38 623.92 342.29 629.12 350.07 632.67 357.73 634.76 365.29 634.99 372.78 633.34 380.23 630.29 387.62 625.62 395.01 619.55 402.42 612.87 409.82 605.5 417.26 597.86 424.74 590.81 432.23 584.46 439.57 579.12 446.74 575.25 453.88 572.71 460.82 571.5 467.48 571.88 474.06 573.38 480.3 575.76 486.12 581.03 494.34 592.31 507.61 596.63 512.41 598.16 518.22 585.09 522.21 575.92 523.43 568.88 525.07 561.19 527.29 553.01 530.31 544.52 534.55 535.76 539.85 526.87 546.31 517.91 554.02 508.96 562.76 500.12 572.34 491.34 582.56 482.71 592.99 474.29 603.2 465.97 612.83 457.84 621.32 449.92 628.17 442.1 633.23 434.44 635.98 426.96 636.21 419.53 634.28 412.23 629.98 405.06 623.6 397.91 616.06 390.86 607.49 383.92 598.56 376.99 590.43 370.31 583.44 363.9 578.04 357.49 574.83 351.35 573.61 345.49 574.31 339.63 577.08 334.05 581.17 328.79 586.12 323.51 591.88 318.54 597.48 313.88 602.42 307 608.19 294.52 609.56 288.79 604.62 284.89 599.32 281.12 592.52 277.45 584.52 273.52 575.65 269.61 566.08 265.66 556.09 261.38 545.9 257 535.71 252.5 525.72 247.63 515.98 242.63 506.65 237.52 497.79 232.11 489.36 226.66 481.41 221.24 473.89 215.69 466.8 210.32 460.03 205.24 453.51 200.3 447.28 195.83 441.17 191.95 435.1 188.47 429.19 185.74 423.21 183.84 417.1 182.48 411.04 181.99 404.79 182.39 398.32 183.27 391.85 184.92 385.13 187.27 378.15 189.82 371.17 192.78 364.11 195.98 357.01 199.01 349.93 202.06 342.85 205.05 335.83 207.58 328.88 209.94 322.05 212.11 315.42 214.49 305.82 218 288.63 219.52 281.34 223.13 270.22 232.92 259.55 238.23 257.51 244.53 255.26 260.14 249.43 269.24 245.09 275.67 241.18 282.43 236.69 289.43 231.59 296.6 225.73 303.96 219.43 311.45 212.86 319.03 206.02 326.7 199.35 334.39 193.13 342.13 187.4 349.87 182.64 357.56 179.11 365.28 176.69 372.93 175.76 380.47 176.4 388.03 178.17 395.46 181.29 402.72 185.54" stroke-dasharray="1 1" transform="rotate(28.28, 400, 400)" opacity="0.73"></path><path d="M394.8 196.41C401.55 200.93 407.97 205.82 414.04 210.76 420.1 215.21 425.81 219.21 431.16 222.61 438.99 225.82 452.95 227.32 459.2 226.27 465.33 224.37 477.1 221.93 483.11 222.38 487.48 223.44 492.05 225.41 496.88 228.28 502.22 231.81 507.95 236.23 514.14 241.42 520.89 247.19 528.13 253.6 535.83 260.52 544.01 267.8 552.53 275.43 561.27 283.29 570.16 291.3 578.97 299.41 587.48 307.53 595.61 315.67 603.03 323.75 609.48 331.74 614.97 339.68 619.13 347.5 621.76 355.2 623.08 362.84 622.76 370.38 620.77 377.8 617.61 385.2 613.04 392.51 607.27 399.73 601.01 406.95 594.16 414.09 587.05 421.14 580.47 428.19 574.47 434.98 569.32 441.47 564.06 451.02 561.32 468.22 563.39 475.69 572.5 487.8 584.71 500.07 585.9 502.31 585.04 504.37 576.81 508.56 569.73 511.57 564.1 514.54 557.76 518.17 550.85 522.61 543.55 528.13 535.86 534.59 527.92 541.98 519.8 550.32 511.56 559.37 503.31 568.92 495.03 578.75 486.8 588.49 478.69 597.72 470.63 606.2 462.7 613.43 454.95 619.01 447.25 622.91 439.71 624.68 432.36 624.18 425.04 621.84 417.88 617.42 410.88 611.21 403.91 604.06 397.07 596.03 390.4 587.69 383.72 580.06 377.34 573.38 371.26 568.08 362.27 563.83 345.72 566.53 338.15 572.22 333.18 577.24 328.48 582.34 324.04 587.07 317.42 593.22 305.13 597.62 299.3 595.07 295.28 591.57 291.34 586.6 287.43 580.38 283.26 573.21 279.06 565.15 274.81 556.45 270.24 547.31 265.57 537.9 260.8 528.41 255.71 518.93 250.53 509.61 245.29 500.56 239.82 491.76 234.37 483.3 229.01 475.2 223.6 467.41 218.43 459.94 213.58 452.77 208.92 445.85 204.76 439.13 201.19 432.56 198.04 426.15 195.6 419.8 193.96 413.47 192.84 407.2 192.54 400.89 193.06 394.51 194.03 388.14 195.72 381.66 198.08 375.08 200.62 368.51 203.54 361.98 206.72 355.53 209.74 349.11 212.81 342.79 215.84 336.64 218.46 330.55 220.94 324.67 223.23 319.07 225.86 311.01 229.8 296.97 231.42 291.2 234.67 282.32 242.73 273.08 247.08 270.72 252.28 267.8 265.42 259.95 273.24 254.49 278.81 249.93 284.72 244.85 290.91 239.29 297.27 233.15 303.86 226.73 310.61 220.2 317.48 213.58 324.46 207.26 331.5 201.48 338.61 196.28 345.75 192.05 352.86 189.02 360.01 187.04 367.11 186.45 374.11 187.3 381.14 189.17 388.04 192.27 394.79 196.4" stroke-dasharray="10 7" transform="rotate(32.32, 400, 400)" opacity="0.70"></path><path d="M387.52 207.28C393.78 211.64 399.77 216.37 405.46 221.18 411.16 225.57 416.57 229.62 421.69 233.16 429.25 236.81 443.19 239.57 449.72 239.13 456.28 237.65 469.49 235.03 476.46 234.8 481.47 235.16 486.73 236.27 492.26 238.15 498.23 240.56 504.55 243.77 511.25 247.74 518.38 252.24 525.87 257.42 533.67 263.16 541.76 269.3 550.01 275.89 558.31 282.8 566.57 289.97 574.6 297.33 582.19 304.82 589.31 312.42 595.66 320.05 601.03 327.66 605.48 335.29 608.68 342.86 610.48 350.32 611.14 357.79 610.35 365.13 608.11 372.34 604.89 379.54 600.47 386.61 595.02 393.53 589.18 400.45 582.83 407.22 576.25 413.81 570.13 420.39 564.48 426.64 559.53 432.52 554.23 441.12 550.29 456.22 551.38 462.62 558.61 473.08 569.85 484.47 571.64 487.21 571.87 490.21 566.83 497.38 561.65 502.3 557.36 506.52 552.35 511.42 546.72 517.05 540.68 523.57 534.18 530.83 527.33 538.79 520.24 547.38 512.92 556.38 505.47 565.57 497.93 574.75 490.34 583.59 482.78 591.72 475.2 598.99 467.69 604.97 460.3 609.34 452.92 612.17 445.67 613.07 438.58 611.97 431.51 609.28 424.58 604.82 417.83 598.83 411.08 592.09 404.49 584.59 398.06 576.82 391.64 569.68 385.52 563.34 379.7 558.15 371.09 553.57 355.26 554.27 347.98 558.67 343.17 562.89 338.59 567.36 334.24 571.71 327.68 577.86 315.19 584.39 309.12 583.81 304.9 581.91 300.71 578.65 296.53 574.18 292.09 568.77 287.61 562.38 283.06 555.2 278.24 547.45 273.34 539.21 268.35 530.68 263.12 521.95 257.84 513.15 252.55 504.42 247.11 495.75 241.75 487.26 236.53 479.03 231.33 470.95 226.41 463.15 221.85 455.62 217.52 448.26 213.7 441.14 210.47 434.23 207.65 427.45 205.52 420.81 204.14 414.31 203.25 407.86 203.13 401.5 203.77 395.19 204.82 388.9 206.54 382.64 208.88 376.41 211.4 370.19 214.28 364.14 217.41 358.28 220.42 352.44 223.49 346.81 226.54 341.43 230.52 333.57 237.09 319.49 239.67 313.42 245.66 297.72 253.29 286.18 256.86 283.14 261.09 279.3 271.98 269.32 278.58 262.83 283.3 257.73 288.36 252.21 293.72 246.36 299.24 240.09 305.01 233.69 310.97 227.35 317.05 221.05 323.28 215.17 329.61 209.9 336.01 205.25 342.47 201.57 348.95 199.03 355.47 197.47 361.97 197.2 368.41 198.25 374.87 200.19 381.25 203.26 387.51 207.27" stroke-dasharray="5 1" transform="rotate(36.36, 400, 400)" opacity="0.66"></path><path d="M381.79 218.15C387.6 222.35 393.21 226.89 398.61 231.55 404 235.87 409.2 239.92 414.2 243.56 424.25 248.46 433.7 251.07 442.75 251.78 452.3 250.14 462 248.5 472.21 247.91 483.57 247.95 495.99 250.55 509.53 255.83 524.24 262.9 539.67 272.42 555.02 283.73 569.74 296.18 582.52 309.61 591.96 323.38 598.05 337.52 599.3 351.55 595.38 365.11 592.16 371.92 587.91 378.59 582.79 385.09 577.38 391.6 571.52 397.92 565.44 404.03 559.77 410.15 554.48 415.89 549.75 421.25 545.96 426.6 542.95 431.56 540.78 436.12 539.66 445.18 541.31 452.62 544.67 458.55 549.89 464.64 554.33 469.71 556.89 474.36 558.28 480.32 556.55 487.16 551.75 495.69 545.09 506.95 535.82 520.6 524.67 536.36 512.49 553.5 499.28 570.46 485.67 585.1 471.83 596.12 458.03 601.33 444.61 599.57 437.92 596.64 431.33 592.2 424.88 586.46 418.44 580.13 412.13 573.16 405.97 565.95 399.81 559.29 393.93 553.29 388.33 548.26 382.71 544.62 377.35 542.25 372.24 541.17 361.93 543.45 352.5 549.28 343.82 556.5 334.77 564.51 326.18 569.77 317.86 571.01 308.8 568.95 299.65 562.25 290.33 551.8 280.12 538.87 269.71 523.92 259.34 508.14 248.69 491.96 238.74 476.06 230.1 460.95 222.48 446.18 217.08 432.22 214.39 419.08 213.72 412.58 213.76 406.23 214.51 400.03 215.63 393.86 217.37 387.81 219.69 381.9 222.16 375.99 224.99 370.35 228.06 364.99 231.03 359.63 234.08 354.56 237.13 349.79 242.25 340.3 246.91 332.11 250.98 325.34 253.51 318.62 255.88 313.19 258.44 308.83 260.41 303.88 263.34 299.23 267.46 294.29 271.93 287.53 277.94 279.56 285.37 270.12 293.4 258.72 302.71 246.48 312.97 234.38 323.64 222.97 334.96 214.12 346.57 209.16 352.43 208.01 358.32 208.03 364.21 209.24 370.1 211.25 375.97 214.26 381.78 218.14" stroke-dasharray="8 5" transform="rotate(40.400000000000006, 400, 400)" opacity="0.62"></path><path d="M378.33 229.02C389.13 237.15 399.45 245.88 409.29 253.81 419.23 259.17 428.93 262.56 438.54 264.14 448.63 263.36 459.1 262.18 470.15 261.52 482.11 260.89 494.95 262.2 508.57 265.72 522.83 270.59 537.3 277.75 551.19 286.75 564.08 296.87 574.82 308.22 582.29 320.21 586.73 332.7 586.88 345.34 582.58 357.72 575.73 370.23 565.96 382.27 554.64 393.55 544.69 404.83 536.49 414.74 530.86 423.28 528.9 431.82 529.38 439.11 531.5 445.35 535.58 451.99 539.37 458.19 541.89 464.51 543.84 472.23 543.32 481.09 540.21 491.6 535.64 504.24 528.63 518.67 519.68 534.31 509.75 550.39 498.54 565.48 486.63 577.78 474.38 586.47 461.87 589.79 449.48 587.01 437.06 579.92 424.88 568.57 413.14 555.09 401.39 543.48 390.55 534.94 380.58 530.6 370.48 531.48 361.06 535.68 352.21 541.56 343 548.82 334.06 554.35 325.27 556.91 315.83 557.08 306.28 553.26 296.6 545.9 286.27 536.16 275.89 524.02 265.75 510.52 255.58 496.19 246.27 481.58 238.37 467.29 231.54 453.05 226.85 439.4 224.71 426.56 224.18 413.84 226.17 401.8 230.49 390.58 235.41 379.35 241.35 369.38 247.62 360.69 252.85 351.98 257.72 344.53 262.1 338.3 265.03 331.89 267.73 326.41 270.47 321.58 272.47 315.91 275.15 310.16 278.75 303.85 282.43 295.84 287.4 286.71 293.62 276.43 300.25 264.76 308.1 252.75 316.92 241.38 326.06 231.06 335.95 223.38 346.3 219.42 356.78 218.65 367.52 222.01 378.32 229.01" stroke-dasharray="6 11" transform="rotate(44.44, 400, 400)" opacity="0.58"></path><path d="M377.57 239.89C387.63 247.64 397.54 256.05 407.26 263.91 417.11 269.64 426.99 273.7 437.03 276.13 447.47 276.28 458.4 275.79 469.87 275.38 481.99 274.53 494.75 275.04 507.91 277.25 521.29 280.34 534.44 285.44 546.63 292.28 557.61 300.08 566.36 309.25 572.01 319.29 575.02 329.83 574.28 340.8 569.74 351.79 563.2 362.92 554.19 373.82 543.83 384.2 534.65 394.58 526.83 403.9 521.08 412.19 518.44 420.55 517.88 428.1 518.84 435.07 521.75 442.57 524.7 450.09 526.89 458.08 528.98 467.36 529.2 477.8 527.33 489.64 524.39 502.95 519.29 517.39 512.34 532.24 504.51 546.77 495.29 559.75 485.14 569.68 474.61 576.21 463.56 577.89 452.34 574.31 441.06 567.24 429.77 556.62 418.66 544.22 407.56 533.42 397.12 525.1 387.32 520.25 377.42 519.9 367.98 522.56 358.93 527.02 349.56 533.24 340.34 538.55 331.18 541.81 321.51 543.56 311.74 542.04 301.92 537.39 291.69 530.68 281.57 521.47 271.87 510.56 262.35 498.61 253.8 485.89 246.72 473.05 240.71 460.01 236.73 447.26 235.12 435.12 234.94 423.02 237.05 411.56 241.29 400.91 246.08 390.27 251.85 380.87 258 372.69 263.28 364.42 268.33 357.23 272.96 351 276.29 344.43 279.37 338.45 282.38 332.75 284.57 326.14 287.21 319.19 290.53 311.59 293.7 302.56 297.92 292.6 303.2 281.87 308.7 270.31 315.31 258.87 322.88 248.44 330.66 239.31 339.26 232.82 348.47 229.81 357.76 229.64 367.51 233.14 377.57 239.89" stroke-dasharray="9 0" transform="rotate(48.48, 400, 400)" opacity="0.54"></path><path d="M379.6 250.76C388.99 258.1 398.49 266.14 408.06 273.86 417.74 279.84 427.67 284.47 437.87 287.68 448.39 288.79 459.4 289.12 470.84 289.23 482.66 288.57 494.86 288.75 507.11 290.15 519.25 291.98 530.82 295.45 541.17 300.47 550.25 306.21 557.13 313.31 561.15 321.43 562.94 329.99 561.5 339.2 556.87 348.72 550.69 358.37 542.45 368.09 533.03 377.63 524.61 387.17 517.21 396.06 511.44 404.33 508.26 412.71 506.8 420.72 506.71 428.58 508.46 436.95 510.48 445.68 512.11 455.05 513.99 465.43 514.53 476.84 513.43 489.26 511.68 502.52 508.07 516.27 502.78 529.76 496.8 542.41 489.4 553.14 480.95 560.79 472.13 565.35 462.59 565.65 452.61 561.47 442.56 554.55 432.25 544.7 421.86 533.35 411.48 523.36 401.49 515.34 391.91 510.13 382.25 508.72 372.85 509.96 363.69 512.99 354.27 517.96 344.9 522.65 335.55 526.05 325.85 528.71 316.1 528.85 306.41 526.38 296.52 522.29 286.88 515.83 277.81 507.53 269.08 498.18 261.4 487.72 255.18 476.74 250.01 465.4 246.73 454.01 245.62 442.92 245.76 431.8 247.97 421.13 252.1 411.09 256.72 401.05 262.28 392.08 268.26 384.11 273.55 376.03 278.71 368.77 283.55 362.17 287.25 355.16 290.71 348.43 294.04 341.72 296.53 334.14 299.31 326.12 302.54 317.49 305.48 307.77 309.23 297.39 313.86 286.64 318.52 275.55 324.17 264.96 330.72 255.66 337.39 247.78 344.89 242.46 353.1 240.34 361.34 240.7 370.21 244.3 379.6 250.76" stroke-dasharray="4 0" transform="rotate(52.52, 400, 400)" opacity="0.51"></path><path d="M384.18 261.62C392.95 268.54 402.01 276.17 411.31 283.65 420.69 289.77 430.44 294.84 440.5 298.74 450.77 300.76 461.45 301.98 472.41 302.79 483.51 302.63 494.74 302.91 505.73 303.97 516.37 305.08 526.22 307.45 534.71 311.12 541.97 315.21 547.14 320.57 549.76 327 550.54 333.75 548.59 341.31 543.99 349.43 538.22 357.65 530.74 366.24 522.22 375.01 514.55 383.78 507.61 392.32 501.92 400.64 498.34 409.09 496.16 417.54 495.15 426.15 495.81 435.2 496.85 444.77 497.77 454.97 499.19 465.87 499.68 477.54 498.96 489.78 497.92 502.31 495.37 514.8 491.37 526.51 486.87 537.07 481.04 545.55 474.1 551.08 466.86 553.92 458.76 553.09 450.03 548.54 441.22 541.87 431.94 532.81 422.34 522.48 412.74 513.31 403.28 505.64 394.02 500.21 384.71 497.94 375.49 497.92 366.37 499.57 357.08 503.19 347.78 506.96 338.49 510.05 329.01 512.99 319.54 514.12 310.23 513.21 300.91 511.18 291.97 507.04 283.7 501.12 275.88 494.28 269.14 486.14 263.81 477.19 259.47 467.82 256.87 458.07 256.21 448.28 256.64 438.41 258.91 428.69 262.9 419.31 267.33 409.93 272.65 401.31 278.42 393.4 283.64 385.38 288.84 377.87 293.83 370.73 297.85 363.2 301.66 355.71 305.33 348.07 308.19 339.72 311.21 330.92 314.53 321.65 317.46 311.66 320.99 301.32 325.22 290.96 329.35 280.67 334.32 271.16 340.11 263.12 345.92 256.52 352.55 252.33 359.93 251.03 367.31 251.85 375.41 255.48 384.18 261.62" stroke-dasharray="4 9" transform="rotate(56.56, 400, 400)" opacity="0.47"></path><path d="M390.72 272.49C398.89 278.95 407.45 286.12 416.32 293.3 425.24 299.43 434.55 304.81 444.14 309.25 453.84 312.1 463.82 314.19 473.9 315.8 483.96 316.36 493.9 317.06 503.39 318.21 512.4 319.11 520.48 320.91 527.17 323.71 534.58 328.73 536.7 344.22 531.1 354.2 525.79 361.16 519.05 368.72 511.42 376.79 504.47 384.85 498.03 393.05 492.51 401.34 488.68 409.75 485.93 418.44 484.14 427.46 483.82 436.8 483.92 446.67 484.06 457.07 484.83 467.83 485.01 479.06 484.34 490.44 483.6 501.69 481.69 512.49 478.58 522.18 475.17 530.59 470.57 536.94 464.9 540.57 459.01 541.95 452.21 540.26 444.66 535.51 437.03 529.19 428.78 520.93 420.03 511.61 411.28 503.25 402.46 496.01 393.65 490.49 384.83 487.54 375.96 486.44 367.1 486.83 358.16 489.08 349.18 491.74 340.24 494.16 331.23 496.88 322.3 498.39 313.63 498.39 305.09 497.75 297.02 495.38 289.68 491.4 282.86 486.73 277.09 480.72 272.66 473.72 269.12 466.34 267.15 458.31 266.91 449.92 267.59 441.43 269.88 432.78 273.71 424.12 277.92 415.47 282.96 407.21 288.47 399.35 293.56 391.38 298.73 383.63 303.78 376.01 308.04 368.07 312.15 360.01 316.12 351.72 319.37 342.94 322.7 333.79 326.22 324.35 329.29 314.55 332.81 304.68 336.86 295.1 340.73 285.88 345.28 277.63 350.54 270.91 355.75 265.58 361.72 262.45 368.43 261.88 375.12 263.07 382.55 266.7 390.72 272.49" stroke-dasharray="3 1" transform="rotate(60.599999999999994, 400, 400)" opacity="0.43"></path><path d="M398.42 283.36C405.99 289.34 413.95 296.01 422.21 302.81 430.51 308.84 439.14 314.36 447.95 319.19 456.79 322.72 465.77 325.61 474.68 328.01 483.44 329.4 491.91 330.74 499.77 332.28 510.31 334.23 523.8 341.53 525.52 347.35 524.91 351.59 522.44 356.71 518.21 362.63 513.39 368.58 507.39 375.27 500.6 382.67 494.38 390.06 488.46 397.84 483.19 405.92 479.24 414.08 476.1 422.67 473.7 431.64 472.55 440.78 471.78 450.39 471.16 460.32 471.19 470.34 470.88 480.51 470 490.5 469.24 500.09 467.61 508.94 465.04 516.53 460.47 525.07 446.25 528.34 436.9 522.42 430.35 516.53 423.1 509.08 415.23 500.74 407.36 493.18 399.27 486.42 391.08 480.95 382.89 477.51 374.58 475.54 366.23 474.82 357.86 475.77 349.45 477.25 341.12 478.78 332.83 480.88 324.68 482.25 316.87 482.6 309.28 482.69 302.21 481.45 295.9 478.88 290.11 475.85 285.32 471.59 281.77 466.28 278.99 460.67 277.6 454.25 277.72 447.23 278.6 440.12 280.88 432.56 284.51 424.68 288.47 416.81 293.21 408.99 298.4 401.28 303.3 393.49 308.35 385.68 313.38 377.81 317.78 369.73 322.1 361.44 326.32 352.94 329.92 344.15 333.56 335.13 337.31 326.02 340.63 316.84 344.26 307.83 348.29 299.34 352.09 291.39 356.43 284.5 361.36 279.11 366.2 274.99 371.7 272.83 377.87 272.88 384.01 274.38 390.86 277.94 398.42 283.36" stroke-dasharray="0 11" transform="rotate(64.64, 400, 400)" opacity="0.39"></path><path d="M406.32 294.23C413.26 299.71 420.53 305.84 428.02 312.18 435.53 317.98 443.27 323.5 451.07 328.55 458.84 332.58 466.6 336.12 474.15 339.22 481.49 341.44 488.41 343.51 494.66 345.61 507.55 351.74 510.53 366.27 505.35 373.68 501.05 378.87 495.76 384.84 489.8 391.59 484.28 398.34 478.91 405.57 473.96 413.19 470.02 420.85 466.64 428.95 463.81 437.38 461.98 445.86 460.49 454.64 459.16 463.54 458.46 472.34 457.58 481.03 456.34 489.28 454.52 500.42 447.45 515.2 441.9 517.26 437.87 516.59 433.03 513.9 427.45 509.28 421.82 503.89 415.5 497.26 408.52 489.87 401.55 483.11 394.29 476.89 386.86 471.58 379.45 467.84 371.88 465.21 364.26 463.57 356.68 463.36 349.08 463.69 341.6 464.23 334.22 465.46 327.04 466.31 320.25 466.53 310.73 466.44 295.82 460.88 291.18 455.37 288.66 448.64 290.79 431.19 295.32 420.89 299 413.84 303.39 406.59 308.23 399.22 312.87 391.81 317.72 384.21 322.63 376.46 327.06 368.59 331.48 360.5 335.85 352.27 339.72 343.94 343.62 335.52 347.59 327.18 351.17 318.99 354.97 311.14 359.05 303.96 365.03 294.64 379.08 284.14 387.38 284.06 393.07 285.78 399.38 289.22 406.32 294.23" stroke-dasharray="5 8" transform="rotate(68.68, 400, 400)" opacity="0.35"></path><path d="M413.43 305.1C425.97 315.11 439.38 326.57 452.74 337.32 465.82 345.16 478.08 351.76 487.94 357.67 496.13 361.64 500.44 366.75 499.74 373.79 496.79 380.46 489.5 389.81 478.99 402 469.86 414.19 461.36 428.23 454.44 443.17 450.6 457.98 447.34 472.99 443.73 486.22 441.18 497.3 436.64 504.09 429.67 504.58 422.64 501.21 412.93 492.06 400.76 479 388.58 467.88 375.3 458.89 361.85 453.11 348.65 451.84 335.65 451.73 324.06 450.95 313.52 451.06 305.39 448.21 300.92 442.03 298.48 435.48 300.16 425.8 306.12 413.41 312.97 401.01 321.9 387.22 331.52 372.76 339.81 358.21 348.3 343.01 356.83 328.42 364.08 314.87 372.19 303.69 381.43 297 390.25 293.87 400.88 296.57 413.43 305.1" stroke-dasharray="3 1" transform="rotate(72.72, 400, 400)" opacity="0.32"></path><path d="M418.86 315.97C429.97 324.88 441.4 335.3 452.35 345.52 462.98 353.76 472.46 361.22 479.58 368.05 485.41 373.24 487.93 379.04 486.45 386.05 483.51 392.63 477.16 401.23 468.19 412.06 460.25 422.88 452.43 435.01 445.56 447.51 440.95 459.68 436.74 471.37 432.4 480.94 429.09 488.65 424.45 492.52 418.07 491.34 411.77 487.56 403.35 479.38 392.9 468.13 382.45 458.35 371.1 449.79 359.71 443.41 348.6 440.45 337.88 438.55 328.58 436.53 317.14 434.29 310.5 418.28 316.93 403.57 323.11 392.88 331.19 380.7 340.06 367.89 348.06 355.23 356.44 342.29 364.9 330.34 372.41 319.58 380.54 311.21 389.41 306.81 397.93 305.16 407.75 308.21 418.86 315.97" stroke-dasharray="1 3" transform="rotate(76.76, 400, 400)" opacity="0.28"></path><path d="M421.95 326.84C431.54 334.61 440.94 343.82 449.53 353.19 457.85 361.34 464.84 369.14 469.68 376.46 473.62 382.57 474.85 388.97 472.98 396 470.25 402.64 464.88 410.59 457.39 419.98 450.63 429.37 443.65 439.35 437.13 449.12 432.17 458.54 427.38 466.99 422.57 473.28 418.62 478.16 413.8 479.84 407.85 477.64 402.05 473.83 394.73 466.74 385.92 457.27 377.11 448.85 367.75 440.97 358.53 434.44 349.56 430.34 341.13 427.01 334.06 423.83 325.54 420.19 321.8 405.54 327.73 393.09 333.18 384.07 340.32 373.84 348.26 363.22 355.7 352.85 363.64 342.56 371.72 333.47 379.16 325.48 387.07 319.7 395.39 317.22 403.46 316.73 412.35 319.94 421.95 326.84" stroke-dasharray="3 11" transform="rotate(80.80000000000001, 400, 400)" opacity="0.24"></path><path d="M422.29 337.71C430.29 344.28 437.73 352.15 444.18 360.39 450.42 367.97 455.34 375.53 458.41 382.8 460.94 389.3 461.34 395.92 459.41 402.75 457.03 409.29 452.66 416.51 446.58 424.39 441.01 432.26 434.99 440.04 429.08 447.16 421.71 456.81 407.56 466.11 399.62 463.57 394.27 460.06 387.94 454.15 380.7 446.4 373.45 439.37 366.02 432.41 358.93 426.15 352.02 421.48 345.74 417.26 340.7 413.24 334.72 408.27 333.25 394.21 338.54 383.83 343.2 376.42 349.3 368.29 356.17 360.1 362.79 352.17 369.96 344.61 377.31 338.28 384.3 332.81 391.63 329.23 399.14 328.26 406.51 328.61 414.3 331.75 422.29 337.71" stroke-dasharray="1 0" transform="rotate(84.84, 400, 400)" opacity="0.20"></path><path d="M419.87 348.58C432.59 359.34 442.09 373.56 446.06 387.15 448.88 399.15 445.37 411.89 435.78 424.49 427.44 437.08 417.33 447.06 407.57 451.16 399.41 453.29 389.39 447.82 377.88 435.53 366.37 425.05 355.59 414.27 348.6 404.97 342.89 398.12 342.59 389.17 349.34 377.43 357.11 365.68 369.05 353.49 381.76 345.08 393.8 338.87 407.13 339.39 419.87 348.58" stroke-dasharray="2 4" transform="rotate(88.88, 400, 400)" opacity="0.16"></path><path d="M414.96 359.44C424.4 367.64 430.75 378.76 432.93 389.76 434.63 400.16 431.96 410.88 424.97 420.27 418.68 429.66 410.49 435.82 402.27 437.38 394.89 438.11 386.44 433.7 377.82 424.66 369.19 416.62 361.96 407.46 357.83 399.02 354.34 391.89 354.77 383.77 360.14 375 366.11 366.23 375.32 358.46 385.24 354 394.96 350.69 405.52 352.17 414.96 359.44" stroke-dasharray="6 7" transform="rotate(92.92, 400, 400)" opacity="0.13"></path><path d="M408.19 370.31C420.58 381.46 423.31 400.09 414.17 412.48 406.22 424.86 392.1 425.7 380.52 413.79 368.92 403.63 363.8 388.71 370.95 376.98 379.18 365.24 395.79 360.8 408.19 370.31" stroke-dasharray="10 9" transform="rotate(96.96, 400, 400)" opacity="0.09"></path></g></svg>